<svg xmlns="http://www.w3.org/2000/svg" xmlns:xlink="http://www.w3.org/1999/xlink" contentStyleType="text/css" data-diagram-type="STATE" height="889.4787px" preserveAspectRatio="none" style="width:800px;height:889px;background:#FFFFFF;" version="1.1" viewBox="0 0 800 889" width="800.7583px" zoomAndPan="magnify"><defs/><g><g class="entity" data-entity="c" data-uid="ent0002" id="entity_c"><polygon fill="#F1F1F1" points="235.8294,646.0664,244.9289,655.1659,235.8294,664.2654,226.7299,655.1659,235.8294,646.0664" style="stroke:#181818;stroke-width:0.3791;"/></g><rect fill="#555555" height="6.0664" style="stroke:none;stroke-width:0.7583;" width="60.6635" x="408.7204" y="361.7062"/><g id="zero"><rect fill="#F1F1F1" height="66.8059" rx="9.4787" ry="9.4787" style="stroke:#181818;stroke-width:0.3791;" width="305.6704" x="286.2559" y="93.2701"/><line style="stroke:#181818;stroke-width:0.3791;" x1="286.2559" x2="591.9263" y1="115.3122" y2="115.3122"/><text fill="#000000" font-family="sans-serif" font-size="10.6161" lengthAdjust="spacing" textLength="54.8957" x="411.6433" y="108.4102">zero status</text><text fill="#000000" font-family="sans-serif" font-size="9.0995" lengthAdjust="spacing" textLength="288.1386" x="290.0474" y="128.8311">Files uploaded to the S3 bucket and not marked to be imported yet.</text><text fill="#000000" font-family="sans-serif" font-size="9.0995" lengthAdjust="spacing" textLength="250.1661" x="290.0474" y="141.2247">These files are just resting in the folder, and the repository</text><text fill="#000000" font-family="sans-serif" font-size="9.0995" lengthAdjust="spacing" textLength="170.9085" x="292.4133" y="153.6184">does not keep any evidence about them</text></g><g id="waiting"><rect fill="#F1F1F1" height="54.4122" rx="9.4787" ry="9.4787" style="stroke:#181818;stroke-width:0.3791;" width="219.6792" x="329.0995" y="233.5545"/><line style="stroke:#181818;stroke-width:0.3791;" x1="329.0995" x2="548.7787" y1="255.5965" y2="255.5965"/><text fill="#000000" font-family="sans-serif" font-size="10.6161" lengthAdjust="spacing" textLength="110.6407" x="383.6188" y="248.6945">waiting before control</text><text fill="#000000" font-family="sans-serif" font-size="9.0995" lengthAdjust="spacing" textLength="202.1474" x="332.891" y="269.1155">A TIF file resting in individual herbarium bucket</text><text fill="#000000" font-family="sans-serif" font-size="9.0995" lengthAdjust="spacing" textLength="158.0417" x="335.2569" y="281.5091">but already noticed by the repository</text></g><g id="imageOK"><rect fill="#F1F1F1" height="42.0186" rx="9.4787" ry="9.4787" style="stroke:#181818;stroke-width:0.3791;" width="111.8945" x="179.7156" y="441.327"/><line style="stroke:#181818;stroke-width:0.3791;" x1="179.7156" x2="291.6102" y1="463.369" y2="463.369"/><text fill="#000000" font-family="sans-serif" font-size="10.6161" lengthAdjust="spacing" textLength="86.9775" x="192.1742" y="456.4671">image control OK</text><text fill="#000000" font-family="sans-serif" font-size="9.0995" lengthAdjust="spacing" textLength="96.7287" x="183.5071" y="476.888">The image passed well</text></g><g id="imageE"><rect fill="#F1F1F1" height="42.0186" rx="9.4787" ry="9.4787" style="stroke:#181818;stroke-width:0.3791;" width="329.3657" x="318.4834" y="441.327"/><line style="stroke:#181818;stroke-width:0.3791;" x1="318.4834" x2="647.8492" y1="463.369" y2="463.369"/><text fill="#000000" font-family="sans-serif" font-size="10.6161" lengthAdjust="spacing" textLength="106.1183" x="430.1072" y="456.4671">image control ERROR</text><text fill="#000000" font-family="sans-serif" font-size="9.0995" lengthAdjust="spacing" textLength="314.1999" x="322.2749" y="476.888">Some check failed, it is not possible to include this photo in the repository</text></g><g id="specimenOK"><rect fill="#F1F1F1" height="42.0186" rx="9.4787" ry="9.4787" style="stroke:#181818;stroke-width:0.3791;" width="196.0021" x="138.0095" y="556.5877"/><line style="stroke:#181818;stroke-width:0.3791;" x1="138.0095" x2="334.0115" y1="578.6297" y2="578.6297"/><text fill="#000000" font-family="sans-serif" font-size="10.6161" lengthAdjust="spacing" textLength="103.7509" x="184.1351" y="571.7277">specimen control OK</text><text fill="#000000" font-family="sans-serif" font-size="9.0995" lengthAdjust="spacing" textLength="180.8362" x="141.8009" y="592.1486">CETAF ID endpoint exists for the specimen</text></g><g id="waitingPub"><rect fill="#F1F1F1" height="42.0186" rx="9.4787" ry="9.4787" style="stroke:#181818;stroke-width:0.3791;" width="221.3353" x="5.3081" y="739.3365"/><line style="stroke:#181818;stroke-width:0.3791;" x1="5.3081" x2="226.6434" y1="761.3785" y2="761.3785"/><text fill="#000000" font-family="sans-serif" font-size="10.6161" lengthAdjust="spacing" textLength="109.25" x="61.3507" y="754.4765">waiting for publishing</text><text fill="#000000" font-family="sans-serif" font-size="9.0995" lengthAdjust="spacing" textLength="206.1695" x="9.0995" y="774.8974">The repository is processing steps on publishing</text></g><ellipse cx="439.0521" cy="12.1327" fill="#222222" rx="7.5829" ry="7.5829" style="stroke:#222222;stroke-width:0.7583;"/><rect fill="#F1F1F1" height="30.3318" rx="9.4787" ry="9.4787" style="stroke:#181818;stroke-width:0.3791;" width="53.317" x="253.2701" y="745.0237"/><text fill="#000000" font-family="sans-serif" font-size="10.6161" lengthAdjust="spacing" textLength="45.7341" x="257.0616" y="764.3086">embargo</text><rect fill="#F1F1F1" height="30.3318" rx="9.4787" ry="9.4787" style="stroke:#181818;stroke-width:0.3791;" width="56.8415" x="87.5829" y="854.5972"/><text fill="#000000" font-family="sans-serif" font-size="10.6161" lengthAdjust="spacing" textLength="49.2586" x="91.3744" y="873.8821">published</text><g class="entity" data-entity="GMN2" data-source-line="49" data-uid="ent0003" id="entity_GMN2"><path d="M100.4739,644.5498 L100.4739,665.5591 A0,0 0 0 0 100.4739,665.5591 L199.6376,665.5591 A0,0 0 0 0 199.6376,665.5591 L199.6376,658.1991 L226.5934,655.1659 L199.6376,652.1327 L199.6376,652.1327 L192.0547,644.5498 L100.4739,644.5498 A0,0 0 0 0 100.4739,644.5498" fill="#FEFFDD" style="stroke:#181818;stroke-width:0.3791;"/><path d="M192.0547,644.5498 L192.0547,652.1327 L199.6376,652.1327 L192.0547,644.5498" fill="#FEFFDD" style="stroke:#181818;stroke-width:0.3791;"/><text fill="#000000" font-family="sans-serif" font-size="9.8578" lengthAdjust="spacing" textLength="83.2395" x="105.0237" y="658.8793">Curators' decision</text></g><!--link *start* to zero--><g class="link" data-entity-1=".start." data-entity-2="zero" data-source-line="24" data-uid="lnk3" id="link_.start._zero"><path d="M439.0521,19.9583 C439.0521,34.3052 439.0521,63.0976 439.0521,88.5687" fill="none" id="*start*-to-zero" style="stroke:#181818;stroke-width:0.7583;"/><polygon fill="#181818" points="439.0521,93.1185,442.0853,86.2938,439.0521,89.327,436.019,86.2938,439.0521,93.1185" style="stroke:#181818;stroke-width:0.7583;"/><path d="M442.8436,46.2559 L442.8436,66.7299 L705.2133,66.7299 L705.2133,53.8389 L697.6303,46.2559 L442.8436,46.2559" fill="#FEFFDD" style="stroke:#181818;stroke-width:0.3791;"/><path d="M697.6303,46.2559 L697.6303,53.8389 L705.2133,53.8389 L697.6303,46.2559" fill="#FEFFDD" style="stroke:#181818;stroke-width:0.3791;"/><text fill="#000000" font-family="sans-serif" font-size="9.8578" lengthAdjust="spacing" textLength="246.6232" x="447.3934" y="60.5854">A file is manualy uploaded via S3 client by the curator</text></g><!--link zero to waiting--><g class="link" data-entity-1="zero" data-entity-2="waiting" data-source-line="28" data-uid="lnk4" id="link_zero_waiting"><path d="M439.0521,160.1972 C439.0521,182.764 439.0521,207.8028 439.0521,228.9062" fill="none" id="zero-to-waiting" style="stroke:#181818;stroke-width:0.7583;"/><polygon fill="#181818" points="439.0521,233.4559,442.0853,226.6313,439.0521,229.6645,436.019,226.6313,439.0521,233.4559" style="stroke:#181818;stroke-width:0.7583;"/><path d="M442.8436,186.5403 L442.8436,207.0142 L777.2512,207.0142 L777.2512,194.1232 L769.6682,186.5403 L442.8436,186.5403" fill="#FEFFDD" style="stroke:#181818;stroke-width:0.3791;"/><path d="M769.6682,186.5403 L769.6682,194.1232 L777.2512,194.1232 L769.6682,186.5403" fill="#FEFFDD" style="stroke:#181818;stroke-width:0.3791;"/><text fill="#000000" font-family="sans-serif" font-size="9.8578" lengthAdjust="spacing" textLength="318.8415" x="447.3934" y="200.8698">Curator filled metadata and submit files in the bucket to be imported</text></g><!--link waiting to fork_state--><g class="link" data-entity-1="waiting" data-entity-2="fork_state" data-source-line="32" data-uid="lnk5" id="link_waiting_fork_state"><path d="M439.0521,288.2427 C439.0521,314.3052 439.0521,346.9573 439.0521,356.9062" fill="none" id="waiting-to-fork_state" style="stroke:#181818;stroke-width:0.7583;"/><polygon fill="#181818" points="439.0521,361.4559,442.0853,354.6313,439.0521,357.6645,436.019,354.6313,439.0521,361.4559" style="stroke:#181818;stroke-width:0.7583;"/><path d="M442.8436,314.6919 L442.8436,335.1659 L682.4645,335.1659 L682.4645,322.2749 L674.8815,314.6919 L442.8436,314.6919" fill="#FEFFDD" style="stroke:#181818;stroke-width:0.3791;"/><path d="M674.8815,314.6919 L674.8815,322.2749 L682.4645,322.2749 L674.8815,314.6919" fill="#FEFFDD" style="stroke:#181818;stroke-width:0.3791;"/><text fill="#000000" font-family="sans-serif" font-size="9.8578" lengthAdjust="spacing" textLength="223.96" x="447.3934" y="329.0214">Repository is processing images asynchronously</text></g><!--link fork_state to imageE--><g class="link" data-entity-1="fork_state" data-entity-2="imageE" data-source-line="36" data-uid="lnk6" id="link_fork_state_imageE"><path d="M439.545,367.8028 C441.2133,375.3403 447.0066,399.8408 455.7346,418.5782 C459.3062,426.2521 461.5604,430.388 466.0798,437.3188" fill="none" id="fork_state-to-imageE" style="stroke:#181818;stroke-width:0.7583;"/><polygon fill="#181818" points="468.5649,441.1299,467.378,433.7565,466.494,437.9539,462.2965,437.07,468.5649,441.1299" style="stroke:#181818;stroke-width:0.7583;"/></g><!--link imageE to fork_state--><g class="link" data-entity-1="imageE" data-entity-2="fork_state" data-source-line="38" data-uid="lnk8" id="link_imageE_fork_state"><path d="M475.4123,441.2512 C469.8009,426.8967 461.7251,407.2645 453.4597,390.5213 C449.1981,381.8919 445.6384,375.9882 442.9161,371.6432" fill="none" id="imageE-to-fork_state" style="stroke:#181818;stroke-width:0.7583;"/><polygon fill="#181818" points="440.5005,367.7877,441.5535,375.1814,442.5135,371.0006,446.6942,371.9606,440.5005,367.7877" style="stroke:#181818;stroke-width:0.7583;"/><path d="M470.1422,394.3128 L470.1422,414.7867 L795.4502,414.7867 L795.4502,401.8957 L787.8673,394.3128 L470.1422,394.3128" fill="#FEFFDD" style="stroke:#181818;stroke-width:0.3791;"/><path d="M787.8673,394.3128 L787.8673,401.8957 L795.4502,401.8957 L787.8673,394.3128" fill="#FEFFDD" style="stroke:#181818;stroke-width:0.3791;"/><text fill="#000000" font-family="sans-serif" font-size="9.8578" lengthAdjust="spacing" textLength="309.9597" x="474.6919" y="408.6423">Curator can provide the specimen ID in case it wasn't autodetected</text></g><!--link fork_state to imageOK--><g class="link" data-entity-1="fork_state" data-entity-2="imageOK" data-source-line="37" data-uid="lnk7" id="link_fork_state_imageOK"><path d="M434.2294,367.7725 C413.4597,377.5773 334.4958,414.8547 282.6512,439.3173" fill="none" id="fork_state-to-imageOK" style="stroke:#181818;stroke-width:0.7583;"/><polygon fill="#181818" points="278.5365,441.2588,286.0029,441.0897,281.9654,439.6408,283.4142,435.6034,278.5365,441.2588" style="stroke:#181818;stroke-width:0.7583;"/></g><!--link imageOK to specimenOK--><g class="link" data-entity-1="imageOK" data-entity-2="specimenOK" data-source-line="43" data-uid="lnk9" id="link_imageOK_specimenOK"><path d="M235.8294,483.2758 C235.8294,503.9773 235.8294,531.3365 235.8294,551.9773" fill="none" id="imageOK-to-specimenOK" style="stroke:#181818;stroke-width:0.7583;"/><polygon fill="#181818" points="235.8294,556.527,238.8626,549.7024,235.8294,552.7355,232.7962,549.7024,235.8294,556.527" style="stroke:#181818;stroke-width:0.7583;"/><path d="M239.6209,509.5735 L239.6209,530.0474 L451.1848,530.0474 L451.1848,517.1564 L443.6019,509.5735 L239.6209,509.5735" fill="#FEFFDD" style="stroke:#181818;stroke-width:0.3791;"/><path d="M443.6019,509.5735 L443.6019,517.1564 L451.1848,517.1564 L443.6019,509.5735" fill="#FEFFDD" style="stroke:#181818;stroke-width:0.3791;"/><text fill="#000000" font-family="sans-serif" font-size="9.8578" lengthAdjust="spacing" textLength="196.0032" x="244.1706" y="523.9029">Proceeded automatically by the repository</text></g><!--link specimenOK to c--><g class="link" data-entity-1="specimenOK" data-entity-2="c" data-source-line="47" data-uid="lnk10" id="link_specimenOK_c"><path d="M235.8294,598.4227 C235.8294,613.945 235.8294,630.036 235.8294,641.418" fill="none" id="specimenOK-to-c" style="stroke:#181818;stroke-width:0.7583;"/><polygon fill="#181818" points="235.8294,645.9678,238.8626,639.1431,235.8294,642.1763,232.7962,639.1431,235.8294,645.9678" style="stroke:#181818;stroke-width:0.7583;"/></g><!--link c to waitingPub--><g class="link" data-entity-1="c" data-entity-2="waitingPub" data-source-line="51" data-uid="lnk11" id="link_c_waitingPub"><path d="M231.2796,659.8521 C216.4019,672.7052 171.9433,711.1184 142.7869,736.3089" fill="none" id="c-to-waitingPub" style="stroke:#181818;stroke-width:0.7583;"/><polygon fill="#181818" points="139.3441,739.2834,146.4912,737.1169,142.2131,736.8047,142.5253,732.5265,139.3441,739.2834" style="stroke:#181818;stroke-width:0.7583;"/></g><!--link c to embargo--><g class="link" data-entity-1="c" data-entity-2="embargo" data-source-line="52" data-uid="lnk13" id="link_c_embargo"><path d="M237.1109,663.2645 C239.31,674.9194 244.3602,698.2218 252.5118,716.5877 C256.9479,726.582 260.9002,733.2085 266.466,741.2388" fill="none" id="c-to-embargo" style="stroke:#181818;stroke-width:0.7583;"/><polygon fill="#181818" points="269.0578,744.9782,267.6631,737.6413,266.898,741.862,262.6772,741.097,269.0578,744.9782" style="stroke:#181818;stroke-width:0.7583;"/></g><!--link embargo to c--><g class="link" data-entity-1="embargo" data-entity-2="c" data-source-line="53" data-uid="lnk14" id="link_embargo_c"><path d="M273.8957,745.0009 C267.9886,730.6464 258.6009,708.019 250.237,688.5308 C246.1801,679.09 243.1856,672.3386 240.2738,665.8324" fill="none" id="embargo-to-c" style="stroke:#181818;stroke-width:0.7583;"/><polygon fill="#181818" points="238.4152,661.6796,238.4345,669.1479,239.964,665.1403,243.9716,666.6698,238.4152,661.6796" style="stroke:#181818;stroke-width:0.7583;"/><path d="M266.1611,692.3223 L266.1611,712.7962 L439.8104,712.7962 L439.8104,699.9052 L432.2275,692.3223 L266.1611,692.3223" fill="#FEFFDD" style="stroke:#181818;stroke-width:0.3791;"/><path d="M432.2275,692.3223 L432.2275,699.9052 L439.8104,699.9052 L432.2275,692.3223" fill="#FEFFDD" style="stroke:#181818;stroke-width:0.3791;"/><text fill="#000000" font-family="sans-serif" font-size="9.8578" lengthAdjust="spacing" textLength="158.3364" x="270.7109" y="706.6518">Embargo autoexpires in two years</text></g><!--link waitingPub to published--><g class="link" data-entity-1="waitingPub" data-entity-2="published" data-source-line="57" data-uid="lnk16" id="link_waitingPub_published"><path d="M116.019,781.2701 C116.019,802.5479 116.019,830.8853 116.019,849.7668" fill="none" id="waitingPub-to-published" style="stroke:#181818;stroke-width:0.7583;"/><polygon fill="#181818" points="116.019,854.3166,119.0521,847.4919,116.019,850.5251,112.9858,847.4919,116.019,854.3166" style="stroke:#181818;stroke-width:0.7583;"/><path d="M119.8104,807.5829 L119.8104,828.0569 L331.3744,828.0569 L331.3744,815.1659 L323.7915,807.5829 L119.8104,807.5829" fill="#FEFFDD" style="stroke:#181818;stroke-width:0.3791;"/><path d="M323.7915,807.5829 L323.7915,815.1659 L331.3744,815.1659 L323.7915,807.5829" fill="#FEFFDD" style="stroke:#181818;stroke-width:0.3791;"/><text fill="#000000" font-family="sans-serif" font-size="9.8578" lengthAdjust="spacing" textLength="196.0032" x="124.3602" y="821.9124">Proceeded automatically by the repository</text></g><!--SRC=[fLHDJzmm4BtdLuou85LG8VLIeHKIeek4E82MlRLLDR5dYRkE7TaEI_hhE-Cac-m2lVIKZ3_Ul3VpnfNH15GtgGDDKGNJ9EDT4HLQWgyN5x0pEbL5J9W852mMgl96qTNLiBJnOVkh_rqi9E2TOUla3mKFyj_64y084XUGFt09jyPIXBQn7ZLfI1vIHV3q1SfMRIa1EWtE9wWnRFlzai3KZG-9muxIP_ZXrXL59f6XC13yRcE2G34Pzmp6PSYDjvh2MGQKE53Zeqa-T0m0slDLoRCbQlXC1_J2DN6A04lV9hbIxoNjq6JeabWh5yIx5BpDweOj5ZWUkeHhMD_TPdfpKiPfmpbQj51HA36OjXvLCwEIaw8DXBeJObnj3MLtH7tFoDJul2S23_UPIrvyk6SkmnzSSgNw01gCaI5tPEq7AClLwc4r0Ir7d2LBUl8r7wn8RM63B4oVWKbW-XeoksXALilTCaxPbisLAjviAf-NFb8H6rAc9dSiP5pFMgQ0UTmirzUtSFSDoEd66vU0NarCKHoPiuodt_HE3ZHjQKsiE9ptxh4jf_Pnm6dMXuOHAS4hOfcC51Cr4RoRmHN5zqy_uVpyglTvmLKXEM6DspBsTMy6XgdHiG6wQG1U38hxbJN4OeQ6gpOW9owe7mOgyl08_6YtemGt_GL9mxs1cX9gJ9ZD7zkovbxrqpBqOh3TuNHDwSQQISPfr8-JhZugK7ODJsRidAg2TxwDjflGPu-791ZCzjugztzmuB-PZF8LEk4XatnW1Z4CArV8hmQNOeVHdVAqjSbhIgGEj1VZx4ZAcH6FKZwAN98E2aoDFB1ekR5lHtQFF3EoOAiUqj8cWTzmkDSHJ_bLLYRAaxo_hURz5yls2rJpI_BiY-4xHvx8BeTDeKglZGc34tQUNrGCyKtdPGe4QN0ur-U_vVy5]--></g></svg>